<svg data-name="box (5)" xmlns="http://www.w3.org/2000/svg" width="23.842" height="23.666" viewBox="0 0 23.842 23.666">
    <path data-name="Path 26239" d="m11.033 144.4-10.71-4.51a.233.233 0 0 0-.323.21v12.056a.745.745 0 0 0 .468.692l10.388 4.155a.233.233 0 0 0 .319-.216v-12.175a.233.233 0 0 0-.142-.212z" transform="translate(0 -133.357)" style="opacity:.5;fill:#707070"/>
    <path data-name="Path 26240" d="M39.361 13.359 49.713 9a.233.233 0 0 0 .008-.426l-10.135-4.73a.745.745 0 0 0-.63 0L28.82 8.574a.233.233 0 0 0 .008.426l10.352 4.359a.233.233 0 0 0 .181 0z" transform="translate(-27.349 -3.598)" style="fill:#0c9ae0;opacity:.5"/>
    <path data-name="Path 26241" d="M272 144.612v12.178a.233.233 0 0 0 .319.216l10.388-4.155a.745.745 0 0 0 .468-.692V140.1a.233.233 0 0 0-.323-.215l-10.71 4.51a.233.233 0 0 0-.142.217z" transform="translate(-259.334 -133.357)" style="opacity:.5;fill:#707070"/>
</svg>
