<svg xmlns="http://www.w3.org/2000/svg" width="23.842" height="23.667" viewBox="0 0 23.842 23.667">
    <g data-name="box (5)">
        <path data-name="Path 26239" d="m.142 144.4 10.71-4.51a.233.233 0 0 1 .323.215v12.056a.745.745 0 0 1-.468.692L.319 157.006A.233.233 0 0 1 0 156.79v-12.178a.233.233 0 0 1 .142-.212z" transform="translate(12.666 -133.357)" style="opacity:.5;fill:#707070"/>
        <path data-name="Path 26240" d="M39.18 13.359 28.828 9a.233.233 0 0 1-.008-.426l10.136-4.73a.745.745 0 0 1 .63 0l10.136 4.73a.233.233 0 0 1-.009.426l-10.352 4.359a.233.233 0 0 1-.181 0z" transform="translate(-27.349 -3.599)" style="opacity:.5;fill:#707070"/>
        <path data-name="Path 26241" d="M283.176 144.612v12.178a.233.233 0 0 1-.319.216l-10.388-4.155a.745.745 0 0 1-.468-.692V140.1a.233.233 0 0 1 .323-.215l10.71 4.51a.233.233 0 0 1 .142.217z" transform="translate(-272 -133.357)" style="fill:#0c9ae0;opacity:.5"/>
    </g>
</svg>
